<?xml version="1.0" encoding="UTF-8"?>
<svg width="16" height="16" viewBox="0 0 16 16" fill="none" xmlns="http://www.w3.org/2000/svg">
    <path d="M8 0C3.58 0 0 3.58 0 8C0 12.42 3.58 16 8 16C12.42 16 16 12.42 16 8C16 3.58 12.42 0 8 0ZM13.82 7H11.5C11.44 5.76 11.2 4.58 10.81 3.56C12.36 4.19 13.53 5.45 13.82 7ZM8 14C7.31 14 5.97 11.95 5.83 9H10.17C10.03 11.95 8.69 14 8 14ZM5.83 7C5.97 4.05 7.31 2 8 2C8.69 2 10.03 4.05 10.17 7H5.83ZM5.19 3.56C4.8 4.58 4.56 5.76 4.5 7H2.18C2.47 5.45 3.64 4.19 5.19 3.56ZM2.18 9H4.5C4.56 10.24 4.8 11.42 5.19 12.44C3.64 11.81 2.47 10.55 2.18 9ZM10.81 12.44C11.2 11.42 11.44 10.24 11.5 9H13.82C13.53 10.55 12.36 11.81 10.81 12.44Z" fill="currentColor"/>
</svg> 